<?xml version="1.0" encoding="utf-8"?>
<!-- Generator: Adobe Illustrator 24.3.0, SVG Export Plug-In . SVG Version: 6.00 Build 0)  -->
<svg version="1.1" id="レイヤー_1" xmlns="http://www.w3.org/2000/svg" xmlns:xlink="http://www.w3.org/1999/xlink" x="0px"
	 y="0px" viewBox="0 0 1000 150" style="enable-background:new 0 0 1000 150;" xml:space="preserve">
<style type="text/css">
	.st0{fill:#DCBB5E;}
	.st1{fill:none;}
	.st2{fill:#FFFFFF;}
	.st3{fill:#2E2623;}
</style>
<circle class="st0" cx="63.58" cy="75.47" r="38.42"/>
<path class="st1" d="M46.12,83.26"/>
<g>
	<path class="st2" d="M46.12,83.26c0.39,6.66-0.41,13.77-1.16,20.46c5.68-3.68,12.28-7.26,18.45-9.9
		c2.73-7.62,6.29-15.07,10.71-22.23l-12.83-7.93C56.84,70.86,51.74,77.39,46.12,83.26z"/>
	<polygon class="st2" points="65.45,56.95 61.63,63.15 74.46,71.08 78.29,64.87 	"/>
</g>
<path class="st3" d="M102.26,73.86c-0.27-4.86-1.45-9.64-3.52-14.21c-2.06-4.49-4.9-8.51-8.45-11.97
	c-7.13-6.9-16.79-10.99-26.5-11.22c-9.94-0.26-19.71,3.31-26.8,9.65C29.7,52.43,25,61.45,24.12,70.85
	c-0.97,9.42,1.72,18.85,7.38,25.89c0.2,0.25,0.56,0.3,0.82,0.13c0.27-0.18,0.36-0.53,0.21-0.81c-4.1-7.7-5.38-16.39-3.6-24.49
	c0.79-4.02,2.31-7.8,4.51-11.23c2.26-3.52,4.96-6.49,8.03-8.82c3.12-2.38,6.63-4.2,10.45-5.41c3.72-1.16,7.61-1.64,11.56-1.41
	c2.18,0.11,4.35,0.47,6.45,1.03l-6.05,10.41l-3.17,5.15l-0.02-0.01l-0.97,1.57c-4.29,6.93-9.31,13.42-14.93,19.29l-0.56,0.58
	l0.05,0.8c0.38,6.47-0.39,13.38-1.16,20.14l-0.37,3.27c-0.01,0.02-0.03,0.03-0.05,0.05c-0.17,0.27-0.1,0.63,0.15,0.82
	c3.54,2.67,7.77,4.7,12.24,5.85c2.35,0.61,4.66,0.96,6.88,1.04c0.39,0.01,0.77,0.03,1.16,0.05c0.48,0.02,0.97,0.05,1.46,0.05
	c0.29,0,0.58-0.01,0.87-0.03c0.38-0.03,0.76-0.05,1.14-0.07c0.76-0.04,1.55-0.09,2.33-0.18c4.58-0.57,9.09-2.05,13.41-4.42
	c4.1-2.25,7.8-5.33,10.98-9.14C99.46,93.7,102.71,83.84,102.26,73.86z M66.05,59.63l9.7,5.98l-1.9,3.08l-9.69-5.99L66.05,59.63z
	 M48,84.1c5.16-5.45,9.81-11.42,13.87-17.76l9.72,6.01c-3.84,6.43-7.08,13.23-9.65,20.24c-3.49,1.52-7.14,3.35-10.72,5.35l3.95-6.4
	c0.85-0.12,1.65-0.6,2.13-1.39c0.87-1.41,0.43-3.27-0.98-4.14c-1.41-0.87-3.27-0.43-4.14,0.98c-0.52,0.85-0.57,1.85-0.22,2.71
	l-4.42,7.17C47.94,92.6,48.19,88.3,48,84.1z M92.91,86.02c-1.1,3.83-2.82,7.39-5.12,10.58c-4.78,6.55-11.96,11.32-19.71,13.09
	c-0.63,0.15-1.27,0.26-1.91,0.37c-0.38,0.07-0.76,0.13-1.15,0.21c-0.62,0.12-1.25,0.16-1.92,0.21c-0.39,0.03-0.78,0.05-1.16,0.09
	c-2.21,0.19-4.39,0.03-6.24-0.16c-4.09-0.48-8.11-1.67-11.97-3.55l2.23-1.44c5.79-3.76,12.24-7.22,18.17-9.75l0.74-0.32l0.27-0.76
	c2.59-7.23,5.93-14.23,9.91-20.83l0.01,0l4.8-7.79l6.31-10.07c4.43,5.12,7.25,11.73,7.84,18.51C94.34,78.35,93.97,82.25,92.91,86.02
	z"/>
<path class="st3" d="M142.12,108.79c-10.54,0-25.56-2.87-26.49-20.5h11.39c0.51,9.87,9.53,10.97,14.09,10.97
	c2.87,0,15.1-0.34,15.1-9.03c0-4.47-2.7-6.16-8.27-7.42l-14.85-3.29c-7.93-1.77-16.53-6.24-16.53-17.97
	c0-13.24,12.74-18.39,24.8-18.39c5.15,0,12.91,0.93,18.56,6.07c3.54,3.21,4.89,6.16,6.07,13.33H154.6
	c-0.42-9.28-10.29-9.79-13.41-9.79c-2.02,0-13.5,0.17-13.5,8.18c0,3.54,2.11,6.33,8.69,7.76l16.03,3.54
	c4.72,1.01,15.44,4.64,15.44,16.7C167.85,100.27,158.4,108.79,142.12,108.79z"/>
<path class="st3" d="M174.44,107.33V43.96h47.91v9.89h-36.28v15.71h33.5v9.11h-33.5v18.75h37.67v9.89H174.44z"/>
<path class="st3" d="M257.76,109.37c-18.38,0-31.06-13.11-31.06-33.11c0-20.08,12.77-33.11,31.06-33.11
	c18.3,0,31.15,13.02,31.15,33.11C288.91,96.26,276.15,109.37,257.76,109.37z M257.76,53.54c-10.64,0-18.98,8-18.98,22.72
	c0,14.64,8.25,22.81,18.98,22.81c11.23,0,19.06-8.68,19.06-22.81S268.91,53.54,257.76,53.54z"/>
<path class="st3" d="M349.44,70.55c-3.18,7.54-6.28,15.16-13.82,23.29c-8.54,9.22-17.76,13.07-23.29,15.41l-7.79-7.21
	c5.03-1.76,14.41-5.11,23.46-14.83c7.04-7.62,9.47-14.41,10.64-17.76h-43.48v-9.22h47.5c1.34,0,3.1-1,4.11-1.59l6.79,7.2
	C350.62,68.21,349.69,70.05,349.44,70.55z M303.53,51.8v-9.47h39.79v9.47H303.53z"/>
<path class="st3" d="M411.36,47.51c-1.26,0.08-1.42,0.25-2.6,1.51c-4.19,4.77-8.88,9.13-13.82,13.07v44.65h-10.47V69.88
	c-5.7,3.77-11.31,7.29-21.11,11.9l-7.29-7.46c17.51-6.87,35.94-20.61,48.59-35.6l7.29,6.03c0.34,0.25,1.42,1.34,1.42,2.01
	C413.37,47.34,413.03,47.43,411.36,47.51z"/>
<path class="st3" d="M454.63,72.35c-0.08,4.69-0.34,13.24-5.28,21.7c-5.61,9.55-13.99,13.4-18.6,15.58l-8.21-6.87
	c16.76-6.03,21.95-14.07,22.37-30.41h-28.15v-8.63h63.25v8.63H454.63z M428.16,51.57v-9.05h40.55v9.05H428.16z"/>
<path class="st3" d="M521.83,61.96c-2.01,2.35-4.78,5.53-11.39,10.98v36.36h-8.63V79.39c-6.37,4.36-10.98,7.12-17.01,9.8l-5.45-6.7
	c4.19-1.68,10.05-4.02,19.77-11.06c11.23-8.04,15.83-13.91,18.6-17.43l6.7,5.61c0.34,0.25,0.59,0.5,0.59,0.84
	C525.01,61.63,522.5,61.88,521.83,61.96z"/>
<path class="st3" d="M549.72,62.61c-4.86-4.01-10.66-7.68-17.49-10.75l5.2-8.02c5.63,2.47,12.54,6.14,17.92,10.58L549.72,62.61z
	 M574.72,85.82c-13.48,10.92-21.59,14.5-32.17,19.03c-0.43,1.19-0.6,2.64-1.28,2.64c-0.51,0-1.28-0.51-1.88-1.62l-5.97-10.24
	c6.83-1.62,18-4.52,31.65-14.76c13.05-9.73,21.25-20.99,25-26.11l5.89,8.53C592.64,67.73,585.98,76.69,574.72,85.82z"/>
<path class="st3" d="M652.11,63.29c-2.85,7.54-5.95,16.08-14.24,26.47c-8.88,11.14-18.01,16.84-22.96,19.94l-9.21-6.54
	c5.11-2.6,16.42-8.21,26.89-22.2c7.04-9.47,9.47-17.17,10.72-21.03h-21.45c-4.86,6.87-8.54,11.14-16.08,18.43l-8.29-5.95
	c11.9-9.55,20.27-21.7,23.88-32.34l8.38,3.77c0.67,0.33,2.18,1,2.18,1.76c0,0.5-0.5,0.67-1.93,1.17c-0.92,1.09-1.93,3.27-2.85,4.61
	h18.77c0.84,0,2.01-0.25,3.6-1.26l7.04,8.21C653.87,60.27,652.53,62.12,652.11,63.29z M647.92,47.54c-2.18-2.76-4.27-4.77-7.29-6.95
	l4.36-3.43c2.85,2.09,5.11,4.19,7.2,6.95L647.92,47.54z M659.9,47.54c-1.51-2.09-4.02-5.53-7.46-8.13l4.27-3.43
	c2.85,2.09,5.53,5.36,7.46,8.13L659.9,47.54z"/>
<path class="st3" d="M727.92,62.57V52.36h-21.26v6.36h16.91v6.86h-16.91v4.19H729v7.2h-22.77c-0.25,1.67-0.42,2.43-0.75,4.35h30.8
	v7.2h-26.87c1.67,2.43,3.01,4.27,7.79,6.95c6.61,3.6,13.56,4.94,18.67,5.94l-4.35,8.12c-4.85-0.84-10.13-1.76-17.66-6.28
	c-6.78-4.02-9.63-7.7-12.39-11.22c-2.26,3.52-4.85,7.53-11.55,11.3c-6.53,3.68-12.64,4.85-17.75,5.86l-5.36-7.53
	c16.32-2.09,21.59-7.03,26.03-13.14h-25.11v-7.2h28.12c0.5-2.01,0.67-3.18,0.75-4.35h-21.85v-7.2h22.1v-4.19h-16.74v-6.86h16.66
	c0-3.18,0-3.35-0.17-6.36h-20.26v10.63h-8.62V44.91h29.21v-7.75L706.99,38c1.42,0.08,1.92,0.25,1.92,0.84c0,0.34-0.25,0.59-0.75,1
	c-0.17,0.08-0.84,0.59-0.84,1.09v3.98h29.3v17.66H727.92z"/>
<path class="st3" d="M811.88,109.62c-5.53,0-11.55-6.28-14.06-8.79c-6.53,4.85-12.47,7.03-18,8.71l-6.61-7.78
	c6.95-1.84,13.73-4.44,19.5-8.79c-1.59-3.6-2.85-6.78-4.02-12.14l-10.71,1.09l-0.5-8.29l9.88-1c0-0.75-0.17-2.76-0.25-3.35
	l-7.28,0.75l-0.34-8.12l7.2-0.75c0-0.34-0.08-2.51-0.08-3.01l-8.87,1v6.03h-9.71v8.96h7.37v9.46h-7.37v9.88
	c3.27-0.84,4.52-1.17,8.96-2.43v7.87c-7.87,2.68-13.14,4.19-25.36,7.62c-2.51,0.67-2.76,0.75-3.27,1.51
	c-0.84,1.09-0.92,1.17-1.34,1.17c-0.5,0-0.84-0.59-1.09-2.26l-1.42-8.45c1.09-0.17,2.76-0.42,3.77-0.67V69.35l7.62,0.67
	c1.01,0.08,2.09,0.17,2.09,1.09c0,0.33-0.42,0.67-0.84,0.92c-0.67,0.42-0.84,0.59-0.84,0.84v23.27c1.34-0.25,1.51-0.34,3.1-0.67
	v-30.3h-10.63V39.14h28.96v11.63l8.71-0.92c-0.08-7.62,0-10.04,0.17-12.14l9.37,0.33c1.51,0.08,2.51,0.25,2.51,1.17
	c0,0.67-0.67,1-1.26,1.26c-1.17,0.34-1.26,0.42-1.34,0.84c-0.25,0.67-0.34,6.19-0.42,7.53l9.46-1.09c-2.85-2.26-4.18-3.35-6.11-4.6
	l5.44-5.36c5.36,2.93,7.28,4.85,8.37,6.03l-3.26,3.52l8.2-0.92v8.12l-22.1,2.6c0,1.26,0,1.42,0.08,3.18l17.24-1.76l0.34,8.2
	l-17.24,1.67c0,0.75,0.17,2.26,0.25,3.26l22.52-2.26l0.25,8.29l-10.38,1.09l5.02,3.1c0.92,0.59,1.67,1.17,1.67,1.76
	c0,0.67-0.17,0.67-1.92,0.67c-0.5,0-0.5,0.08-1,0.75c-2.85,3.77-4.6,6.11-7.7,9.54c0.75,0.92,2.76,3.1,5.11,3.1
	c1.67,0,2.6-1.51,3.1-6.36l6.53,4.77C819.16,98.15,818.57,109.62,811.88,109.62z M768.69,47.17h-11.05v9.96h11.05V47.17z
	 M797.65,79.98c0.34,2.68,0.84,4.19,2.01,6.53c2.51-3.01,3.6-4.77,4.77-7.28L797.65,79.98z"/>
<path class="st3" d="M825.02,56.97v-6.95h25.53v6.95H825.02z M843.02,108.28v-2.68h-8.12v3.93h-7.95v-26.7h23.69v25.45H843.02z
	 M827.79,78.98v-6.95h20.51v6.95H827.79z M827.95,67.51v-6.86h20.26v6.86H827.95z M828.04,46.42v-6.86h19.92v6.86H828.04z
	 M842.94,90.11h-8.04v7.78h8.04V90.11z M893.58,96.22v5.19c0,5.02-3.01,7.53-12.47,7.7l-3.93-8.96c1.84,0.17,4.77,0.33,5.52,0.33
	c1.34,0,3.18-0.42,3.18-2.51v-1.76h-22.77v12.89h-8.04V96.22h-3.35v-6.78h3.35V70.19h14.56v-3.1h-18.25v-6.11h9.96v-3.85h-6.53
	v-5.52h6.53v-3.43h-9.29v-6.11h9.29v-4.52l8.12,0.25c2.34,0.08,2.68,0.25,2.68,1c0,0.59-0.33,0.84-1,1.26
	c-0.92,0.67-0.92,0.67-0.92,2.01h7.79v-4.52l8.04,0.17c2.26,0.08,2.76,0.42,2.76,1c0,0.42-0.25,0.75-0.84,1.17
	c-1.09,0.84-1.17,1-1.17,2.18h10.55v6.11H886.8v3.43h6.45v5.52h-6.45v3.85h10.55v6.11h-18.83v3.1h15.07v19.25h3.77v6.78H893.58z
	 M869.64,75.88h-6.53v3.6h6.53V75.88z M869.64,85.26h-6.53v4.19h6.53V85.26z M878.01,48.18h-7.79v3.43h7.79V48.18z M878.01,57.13
	h-7.79v3.85h7.79V57.13z M885.88,75.88h-7.37v3.6h7.37V75.88z M885.88,85.26h-7.37v4.19h7.37V85.26z"/>
<path class="st3" d="M918.86,53.45c0,15.4,0,16.41-0.42,22.68c5.69-7.37,8.04-16.15,9.04-21.68l7.7,1.42c2.6,0.5,2.6,0.92,2.6,1.26
	c0,0.84-1.17,1.34-2.18,2.01c-0.34,0.75-1.01,3.18-1.26,4.1c2.43,5.44,5.11,7.62,6.61,8.96V55.71l9.29,0.75
	c2.01,0.17,2.68,0.59,2.68,1.26c0,0.67-1,1.17-2.18,2.26v13.48c2.26-3.35,5.69-8.71,7.53-19.08l8.37,1.84
	c1.34,0.25,2.43,0.67,2.43,1.42c0,0.92-1.42,1.34-2.68,1.84c-0.5,1.09-0.92,2.6-1.59,4.6c2.43,4.52,6.11,9.63,11.89,13.48l-6.03,6.7
	c-3.01-2.34-6.03-5.78-9.63-10.97c-2.6,5.19-4.6,7.28-6.03,8.71l-4.27-2.68v6.19h20.26v8.2h-20.26v7.03h25.53v8.71h-60.85v-8.71
	h25.53v-7.03H921.2v-8.2h19.75v-7.03l-3.52,3.18c-1.93-2.09-4.52-5.11-6.86-8.79c-2.93,5.78-4.6,7.87-6.36,10.04l-6.03-3.26
	c-0.75,6.03-2.34,19.5-8.54,30.72l-8.79-3.26c3.93-7.7,8.7-18.33,8.7-41.85c0-3.01-0.08-10.55-1-20.51h26.87V37.3l10.13,0.59
	c2.26,0.17,2.6,0.5,2.6,1.09c0,0.5-0.75,1-1.84,1.92v3.85h30.97v8.71H918.86z"/>
</svg>
